<?xml version="1.0" encoding="UTF-8"?>
<!DOCTYPE svg PUBLIC "-//W3C//DTD SVG 1.1//EN" "http://www.w3.org/Graphics/SVG/1.1/DTD/svg11.dtd">
<!-- Creator: CorelDRAW -->
<svg xmlns="http://www.w3.org/2000/svg" xml:space="preserve" width="158.196mm" height="180.622mm" style="shape-rendering:geometricPrecision; text-rendering:geometricPrecision; image-rendering:optimizeQuality; fill-rule:evenodd; clip-rule:evenodd"
viewBox="0 0 158.039 180.443"
 xmlns:xlink="http://www.w3.org/1999/xlink">
 <defs>
  <style type="text/css">
   <![CDATA[
    .fil0 {fill:#14b8a6}
    .fil1 {fill:#FFFFFF}
   ]]>
  </style>
 </defs>
 <g id="Layer_x0020_1">
  <metadata id="CorelCorpID_0Corel-Layer"/>
  <g id="_454898248">
   <path id="_454037400" class="fil0" d="M9.38797 180.443l71.7571 0c0.853851,-0.640363 2.03957,-1.13257 2.44956,-2.58093 0.490213,-1.73208 -0.0552451,-2.89142 -0.95555,-3.78084 -12.8188,-12.6639 -18.3416,-31.5312 -12.6069,-49.567 5.50732,-17.3209 20.8559,-32.0011 41.9836,-34.0595 5.96317,-0.580922 12.0774,0.02008 17.4945,1.52788 7.81793,2.17624 5.96307,-6.26597 5.96966,-12.3337 0.00619384,-5.75917 0.550852,-53.1254 -0.498704,-56.5858 -1.39102,-4.58644 -5.33999,-7.89075 -11.1167,-8.02452 -9.57588,-0.221879 -10.941,-1.37413 -10.933,8.22202 0.00579424,6.96477 -1.48562,10.5811 -6.02791,13.0107 -3.94348,2.1092 -12.8432,1.32318 -17.9375,1.32288 -7.642,-0.000399603 -53.3304,0.388514 -56.8215,-0.163038 -11.9415,-1.88682 -8.96019,-15.1469 -9.50035,-19.065 -0.471132,-3.4176 -3.04297,-3.34757 -6.27756,-3.33169 -7.2458,0.0355646 -10.9779,0.223478 -14.22,4.93759 -2.88633,4.19683 -1.98533,11.2009 -1.99212,17.0333 -0.00839166,7.16458 -0.404198,129.27 0.104496,133.536 0.350951,2.94327 1.41749,4.67116 3.09243,6.35059 2.86505,2.87274 2.90911,1.79102 6.0364,3.55167z"/>
   <path id="_454036536" class="fil0" d="M112.098 180.443l8.82353 0c2.94727,-1.38712 7.81543,-0.725279 15.2972,-4.91182 6.30983,-3.53069 11.918,-8.52003 15.6077,-14.7028 17.2149,-28.8466 -3.61091,-62.7077 -34.666,-63.079 -22.4254,-0.268133 -40.3549,17.2815 -41.7242,38.6334 -1.22119,19.0436 10.5266,36.0426 28.575,42.0526 1.35465,0.451052 2.49552,0.760244 3.87315,1.04966l4.21371 0.957947z"/>
   <path id="_454037856" class="fil0" d="M69.9723 0l-4.30552 0c-2.28343,1.13307 -3.99093,0.947058 -6.42831,2.70261 -1.76315,1.26974 -3.35486,3.21221 -4.81022,4.81711 -5.59853,-0.00329672 -15.1754,-0.914591 -19.1699,1.86435 -5.18375,3.60621 -5.15318,8.1441 -5.03839,16.0053 0.0594409,4.07395 1.84836,4.71032 5.87945,4.69084l63.4421 9.99007e-005c4.0259,0.0185815 5.81502,-0.624379 5.88115,-4.69094 0.132268,-8.12802 0.224577,-12.2234 -5.07745,-15.9779l-19.1325 -1.89382c-1.29971,-0.411491 -2.52139,-4.1224 -7.55968,-6.30983 -1.17134,-0.508494 -2.62229,-0.682821 -3.68074,-1.2078z"/>
   <path id="_454037160" class="fil1" d="M120.316 154.674l0.0379623 -11.8296 11.9276 -0.125475c4.18474,-0.660443 4.0249,-5.9329 0.81439,-7.10873l-12.6448 -0.39251c0,-3.0172 -0.00679325,-6.0339 0.00759245,-9.051 0.0151849,-3.18793 -0.443459,-5.78645 -3.67754,-5.84359 -5.25358,-0.0926079 -3.85816,8.1461 -3.85107,15.0079 -6.78415,0 -14.7444,-1.34057 -15.0027,3.57045 -0.28192,5.36117 7.9482,3.95826 14.8895,3.95057 0.437465,3.2153 -0.410792,9.89106 0.306495,12.3861 1.00031,3.47974 6.5347,3.7204 7.19255,-0.564039z"/>
  </g>
 </g>
</svg>
