<?xml version="1.0" encoding="UTF-8"?>
<svg version="1.1" xmlns="http://www.w3.org/2000/svg" width="561" height="100">
<path d="M0 0 C3.60920145 0.01846328 7.21814843 0.02050779 10.82739258 0.02026367 C13.12361877 0.02517251 15.41984322 0.03099804 17.71606445 0.0378418 C18.79409836 0.03895462 19.87213226 0.04006744 20.98283386 0.04121399 C22.4763311 0.05078377 22.4763311 0.05078377 24 0.06054688 C25.31232857 0.06626457 25.31232857 0.06626457 26.65116882 0.07209778 C28.8918457 0.20581055 28.8918457 0.20581055 31.8918457 1.20581055 C31.30974886 9.35516634 29.22288072 15.24766011 23.3293457 21.08081055 C19.98667447 23.79598268 17.35604975 24.7476011 13.11450195 25.40112305 C12.13360596 25.5585498 11.15270996 25.71597656 10.14208984 25.87817383 C9.39950928 25.98629395 8.65692871 26.09441406 7.8918457 26.20581055 C7.84697021 27.29410156 7.80209473 28.38239258 7.75585938 29.50366211 C7.58375557 33.59704361 7.39525198 37.68954235 7.20214844 41.78198242 C7.12127565 43.54285463 7.04466871 45.30392874 6.97265625 47.06518555 C6.30758724 63.21030907 4.90776731 77.52748623 -6.1081543 90.20581055 C-16.49089784 98.69920677 -28.90059304 101.46052887 -42.1081543 100.20581055 C-48.65881523 99.12328607 -54.99130518 97.835484 -61.1081543 95.20581055 C-57.8972211 93.35686086 -55.14372082 92.8327717 -51.4831543 92.39331055 C-41.94517175 90.88303316 -34.03921496 86.97231454 -28.1081543 79.20581055 C-20.05151483 66.5610576 -19.10208193 51.78239022 -18.5456543 37.20581055 C-18.48087891 35.61446289 -18.48087891 35.61446289 -18.41479492 33.9909668 C-18.30959434 31.39601904 -18.20745311 28.80098971 -18.1081543 26.20581055 C-30.78951809 28.28555421 -42.24252129 31.13302662 -51.1081543 41.20581055 C-56.35366334 48.70524926 -57.65887875 57.36876451 -59.1081543 66.20581055 C-65.3109302 56.90164669 -65.37280133 43.85251354 -63.60424805 33.15893555 C-61.45976105 24.48295386 -58.028286 16.0879225 -51.1081543 10.20581055 C-50.3656543 9.52518555 -49.6231543 8.84456055 -48.8581543 8.14331055 C-34.69027684 -1.83860312 -16.5185248 -0.08772511 0 0 Z " fill="#5FBFBF" transform="translate(64.108154296875,-0.205810546875)"/>
<path d="M0 0 C19 0 19 0 23.92578125 4.8984375 C25.12752367 7.01761088 26.25606308 9.17977298 27.3125 11.375 C27.89193359 12.43589844 28.47136719 13.49679688 29.06835938 14.58984375 C30.21022446 16.68819784 31.32327826 18.80252597 32.40478516 20.93261719 C34.39597373 24.76140403 36.62918023 28.40747875 38.92260742 32.06103516 C40 34 40 34 40 36 C40.66 36 41.32 36 42 36 C42.27690674 35.2673291 42.55381348 34.5346582 42.83911133 33.77978516 C43.91856619 31.19499586 45.12886084 28.91788864 46.57421875 26.5234375 C47.07252197 25.69231445 47.5708252 24.86119141 48.08422852 24.00488281 C49.16816391 22.22687884 50.25868522 20.45287577 51.35522461 18.68261719 C54.81752004 13.12134708 54.81752004 13.12134708 57.6796875 7.2421875 C59.0625 4.25 59.0625 4.25 63 0 C69.27 0 75.54 0 82 0 C82 27.06 82 54.12 82 82 C75.73 82 69.46 82 63 82 C62.97530677 75.64624313 62.95714322 69.29251411 62.94506836 62.9387207 C62.94003528 60.77660638 62.93320831 58.61449547 62.92456055 56.45239258 C62.91245021 53.34715941 62.90676148 50.2419712 62.90234375 47.13671875 C62.89718246 46.16788254 62.89202118 45.19904633 62.88670349 44.20085144 C62.88662796 43.3001442 62.88655243 42.39943695 62.88647461 41.47143555 C62.884254 40.67867722 62.88203339 39.88591888 62.87974548 39.06913757 C63 37 63 37 64 34 C63.34 34 62.68 34 62 34 C61.73195557 34.71639648 61.46391113 35.43279297 61.18774414 36.17089844 C59.98496689 39.03580753 58.58140624 41.59496271 56.99609375 44.265625 C56.42052734 45.23757812 55.84496094 46.20953125 55.25195312 47.2109375 C54.65318359 48.21382812 54.05441406 49.21671875 53.4375 50.25 C52.83486328 51.26835938 52.23222656 52.28671875 51.61132812 53.3359375 C47.14501232 60.85498768 47.14501232 60.85498768 46 62 C42.30559235 62.73749004 39.9193688 62.46110221 36 62 C29.94328796 52.91493195 24.47076138 43.44949693 19 34 C19 49.84 19 65.68 19 82 C12.73 82 6.46 82 0 82 C0 54.94 0 27.88 0 0 Z " fill="#5EC0C0" transform="translate(294,9)"/>
<path d="M0 0 C1.18613892 0.00785522 1.18613892 0.00785522 2.39624023 0.01586914 C3.67724609 0.02070313 3.67724609 0.02070313 4.98413086 0.02563477 C5.88196289 0.03401367 6.77979492 0.04239258 7.70483398 0.05102539 C8.6065332 0.05553711 9.50823242 0.06004883 10.43725586 0.06469727 C12.67235033 0.07652316 14.90729891 0.09384295 17.14233398 0.11352539 C21.3647812 9.0922572 25.08305031 18.25296122 28.75561523 27.46508789 C29.37605954 29.01645851 29.99668346 30.5677573 30.61747742 32.11898804 C31.90742237 35.34389493 33.19560378 38.56949848 34.48242188 41.7956543 C36.13500276 45.93854786 37.7914719 50.0798736 39.44915485 54.22072792 C40.72607573 57.41136529 42.00128404 60.60268479 43.2759304 63.79423141 C43.88670994 65.32310772 44.49795698 66.85179735 45.10967445 68.38029861 C45.95860889 70.50245043 46.80530978 72.62547914 47.65136719 74.7487793 C48.13370316 75.95692291 48.61603912 77.16506653 49.11299133 78.40982056 C50.14233398 81.11352539 50.14233398 81.11352539 50.14233398 82.11352539 C42.88233398 82.11352539 35.62233398 82.11352539 28.14233398 82.11352539 C26.49233398 78.15352539 24.84233398 74.19352539 23.14233398 70.11352539 C12.58233398 69.78352539 2.02233398 69.45352539 -8.85766602 69.11352539 C-9.84766602 72.41352539 -10.83766602 75.71352539 -11.85766602 79.11352539 C-12.18766602 80.10352539 -12.51766602 81.09352539 -12.85766602 82.11352539 C-20.11766602 82.11352539 -27.37766602 82.11352539 -34.85766602 82.11352539 C-30.90121011 71.4787229 -26.83547118 60.90153828 -22.61938477 50.36743164 C-22.04735576 48.93540844 -21.47540196 47.5033552 -20.90351868 46.0712738 C-19.72069312 43.11052716 -18.53657676 40.15030096 -17.3515625 37.19042969 C-15.8310063 33.3919774 -14.31444361 29.59194407 -12.7988615 25.79150486 C-11.62626665 22.85268346 -10.45130819 19.91481155 -9.2756443 16.97721672 C-8.71464207 15.57445434 -8.15445553 14.17136546 -7.5950985 12.76794624 C-6.82008474 10.82428502 -6.0418306 8.88195343 -5.26269531 6.93994141 C-4.82112595 5.83570328 -4.37955658 4.73146515 -3.92460632 3.59376526 C-2.44287422 0.14928854 -2.44287422 0.14928854 0 0 Z M7.14233398 24.11352539 C3.84233398 33.35352539 0.54233398 42.59352539 -2.85766602 52.11352539 C3.74233398 52.11352539 10.34233398 52.11352539 17.14233398 52.11352539 C16.39256957 48.3647033 15.55052531 45.16219598 14.29467773 41.59399414 C13.93696289 40.57241211 13.57924805 39.55083008 13.21069336 38.49829102 C12.65091797 36.91564453 12.65091797 36.91564453 12.07983398 35.30102539 C11.7027832 34.2265918 11.32573242 33.1521582 10.93725586 32.04516602 C10.0085874 29.40022421 9.0768521 26.75640485 8.14233398 24.11352539 C7.81233398 24.11352539 7.48233398 24.11352539 7.14233398 24.11352539 Z " fill="#5FC0C0" transform="translate(421.857666015625,8.886474609375)"/>
<path d="M0 0 C6.6 0 13.2 0 20 0 C24.17592913 10.39470391 28.34895939 20.79055845 32.5168457 31.18848991 C34.45211363 36.0162063 36.38866589 40.84339926 38.328125 45.66943359 C40.19848048 50.3236496 42.06549915 54.979191 43.93017578 59.63568497 C44.64347748 61.41523344 45.35799634 63.19429452 46.07373047 64.97286606 C47.07317839 67.45704527 48.06835071 69.94289574 49.0625 72.42919922 C49.36172363 73.17006775 49.66094727 73.91093628 49.96923828 74.67425537 C52 79.77189568 52 79.77189568 52 82 C45.07 82 38.14 82 31 82 C29.35 78.04 27.7 74.08 26 70 C15.44 70 4.88 70 -6 70 C-8.475 75.94 -8.475 75.94 -11 82 C-17.93 82 -24.86 82 -32 82 C-31.11435914 77.5717957 -29.82791676 73.72801328 -28.1484375 69.5793457 C-27.85729065 68.85031036 -27.5661438 68.12127502 -27.26617432 67.37014771 C-26.30657686 64.97034918 -25.34086604 62.5730629 -24.375 60.17578125 C-23.70586569 58.5063411 -23.03708819 56.8367579 -22.36865234 55.16703796 C-20.96905748 51.67338406 -19.56671018 48.18085325 -18.16210938 44.68920898 C-16.3594651 40.2080824 -14.56129225 35.72517992 -12.76486206 31.24155903 C-11.0529213 26.9690927 -9.33917833 22.69735024 -7.625 18.42578125 C-7.29699402 17.60822168 -6.96898804 16.79066212 -6.63104248 15.94832802 C-5.70552312 13.64264933 -4.77877098 11.33747056 -3.8515625 9.0324707 C-3.57620667 8.34621109 -3.30085083 7.65995148 -3.01715088 6.95289612 C-1.11513985 2.2302797 -1.11513985 2.2302797 0 0 Z M9 24 C7.49500991 28.28993333 5.99685363 32.58222158 4.5 36.875 C3.85611328 38.70998047 3.85611328 38.70998047 3.19921875 40.58203125 C2.79316406 41.74863281 2.38710937 42.91523437 1.96875 44.1171875 C1.59169922 45.19597168 1.21464844 46.27475586 0.82617188 47.38623047 C-0.10046237 49.86096201 -0.10046237 49.86096201 0 52 C6.6 52 13.2 52 20 52 C18.76177626 48.17067842 17.51916906 44.3432554 16.26464844 40.51928711 C15.83908966 39.21743458 15.41622513 37.91469816 14.99609375 36.61108398 C14.39247787 34.73973238 13.7784223 32.87175822 13.1640625 31.00390625 C12.79748535 29.87799072 12.4309082 28.7520752 12.05322266 27.59204102 C11.27678759 24.86327515 11.27678759 24.86327515 9 24 Z " fill="#5FC0C0" transform="translate(140,9)"/>
<path d="M0 0 C7.87254175 -1.1085418 16.26093199 -2.25332987 24 0 C29.12242761 3.99212668 31.74799872 9.99100931 34.14404297 15.89355469 C35.67578534 20.21346729 35.67578534 20.21346729 39 23 C39.24492187 22.19304688 39.48984375 21.38609375 39.7421875 20.5546875 C42.38024329 13.09931245 45.36108904 4.77770051 52 0 C59.77426079 -2.11134786 68.1104149 -1.04922271 76 0 C72.36106541 6.50101797 68.55589858 12.78611719 64.30859375 18.90234375 C63.91048492 19.47941071 63.5123761 20.05647766 63.10220337 20.65103149 C61.46360502 23.02369223 59.82280215 25.39405746 58.1550293 27.74633789 C56.91848492 29.49560156 55.7057921 31.25944941 54.49609375 33.02734375 C53.41606079 34.57023071 53.41606079 34.57023071 52.31420898 36.14428711 C50.68547329 38.90464343 50.68547329 38.90464343 51.64746094 41.65429688 C52.09379883 42.42837891 52.54013672 43.20246094 53 44 C53.3400708 44.59756104 53.6801416 45.19512207 54.03051758 45.81079102 C54.39814209 46.36951904 54.7657666 46.92824707 55.14453125 47.50390625 C55.56822998 48.15294922 55.99192871 48.80199219 56.4284668 49.47070312 C56.88519775 50.16099609 57.34192871 50.85128906 57.8125 51.5625 C58.2866333 52.28759766 58.7607666 53.01269531 59.24926758 53.75976562 C60.27669828 55.33075855 61.30598897 56.90053625 62.33691406 58.46923828 C64.70411027 62.07146316 67.06355682 65.67870347 69.41870117 69.28881836 C70.588315 71.08158048 71.7603149 72.87278839 72.93481445 74.66235352 C73.46550537 75.47502686 73.99619629 76.2877002 74.54296875 77.125 C75.01758545 77.84945312 75.49220215 78.57390625 75.98120117 79.3203125 C77 81 77 81 77 82 C56.68805554 84.70125149 56.68805554 84.70125149 50.83203125 80.41210938 C47.3334394 76.41537366 45.00603578 71.84464639 42.89208984 66.99853516 C41.95614861 64.79271505 41.95614861 64.79271505 40.23828125 62.07421875 C39 60 39 60 39 58 C36.3280908 60.35264562 35.12015988 62.64066938 33.70703125 65.88671875 C27.95818361 77.77909276 27.95818361 77.77909276 23 82 C15.29093128 84.5578125 6.87430395 83.31414903 -1 82 C0.38331509 78.18794081 2.14904554 75.04216018 4.4140625 71.68359375 C5.09339844 70.67103516 5.77273437 69.65847656 6.47265625 68.61523438 C7.18292969 67.56658203 7.89320313 66.51792969 8.625 65.4375 C9.31207031 64.41591797 9.99914062 63.39433594 10.70703125 62.34179688 C11.39410156 61.32021484 12.08117187 60.29863281 12.7890625 59.24609375 C13.47387695 58.22112793 14.15869141 57.19616211 14.86425781 56.14013672 C16.33997353 53.970423 17.8328027 51.84125546 19.37792969 49.72314453 C20.12719727 48.6711084 20.87646484 47.61907227 21.6484375 46.53515625 C22.33856934 45.59164307 23.02870117 44.64812988 23.73974609 43.67602539 C25.31508032 41.06520719 25.31508032 41.06520719 24.32983398 38.34570312 C22.58888482 35.27483116 20.68579817 32.34404398 18.6875 29.4375 C17.79707102 28.12184165 16.90781375 26.80538978 16.01953125 25.48828125 C15.5395166 24.77752441 15.05950195 24.06676758 14.56494141 23.33447266 C11.63003265 18.95637631 8.7522544 14.54111302 5.875 10.125 C5.29451904 9.23868896 4.71403809 8.35237793 4.1159668 7.43920898 C3.58011963 6.61622314 3.04427246 5.7932373 2.4921875 4.9453125 C1.77071533 3.83953857 1.77071533 3.83953857 1.03466797 2.71142578 C0 1 0 1 0 0 Z " fill="#5FC0C0" transform="translate(205,9)"/>
<path d="M0 0 C20.40231727 -1.61863862 20.40231727 -1.61863862 25.83984375 1.76953125 C27.67086588 4.43636113 28.81641973 6.98967206 30 10 C30.94681924 11.8054568 31.94401135 13.5770684 32.9453125 15.3527832 C34.35544924 17.87152893 35.67711211 20.43464294 37 23 C37.44762695 21.95489258 37.44762695 21.95489258 37.90429688 20.88867188 C41.28062275 13.3885126 44.80090453 5.57339913 51 0 C58.68462697 -2.77327771 67.12376017 -1.45119282 75 0 C73.69303276 3.54653048 72.13756517 6.53113053 70.0234375 9.66015625 C69.43828369 10.53091797 68.85312988 11.40167969 68.25024414 12.29882812 C67.63141357 13.21083984 67.01258301 14.12285156 66.375 15.0625 C65.74779053 15.99900391 65.12058105 16.93550781 64.47436523 17.90039062 C61.77849657 21.92106431 59.06980402 25.92780233 56.26171875 29.87109375 C55.53597656 30.90363281 54.81023438 31.93617187 54.0625 33 C53.43472656 33.86625 52.80695312 34.7325 52.16015625 35.625 C50.68745089 38.63983117 51.11891488 39.81054351 52 43 C53.03035108 45.10837738 53.03035108 45.10837738 54.37109375 47.1171875 C54.85852051 47.88208496 55.34594727 48.64698242 55.84814453 49.43505859 C56.37263184 50.24023926 56.89711914 51.04541992 57.4375 51.875 C57.9722998 52.7098291 58.50709961 53.5446582 59.05810547 54.40478516 C62.90856591 60.3919832 66.83662084 66.32975634 70.87670898 72.19091797 C73.04232657 75.3722516 74.63500828 78.41243412 76 82 C55.71201886 83.78468338 55.71201886 83.78468338 49.97265625 80.0078125 C47.91491253 77.10424774 46.47074323 74.23945522 45 71 C43.91458165 69.16520923 42.77569717 67.37242689 41.62670898 65.5769043 C40.03344244 63.08187996 38.51882141 60.54079432 37 58 C36.50371094 58.89460938 36.00742187 59.78921875 35.49609375 60.7109375 C34.08861353 63.23921497 32.63244289 65.73240999 31.15234375 68.21875 C29.78315688 70.53880991 28.75161754 72.62913175 27.75390625 75.15625 C26.26677023 78.38069445 24.81963901 79.85061642 22 82 C19.24633789 82.56152344 19.24633789 82.56152344 16.22265625 82.609375 C15.13984375 82.63016113 14.05703125 82.65094727 12.94140625 82.67236328 C7.94832346 82.60237354 2.97904429 82.37768454 -2 82 C-1.56558594 81.32018066 -1.13117188 80.64036133 -0.68359375 79.93994141 C2.02730625 75.69609201 4.72859017 71.44842016 7.375 67.1640625 C8.20829867 65.81768688 9.04163258 64.47133307 9.875 63.125 C10.29289795 62.44719482 10.7107959 61.76938965 11.14135742 61.07104492 C13.22406898 57.72412864 15.35670367 54.45034428 17.67578125 51.26171875 C18.09811035 50.67825684 18.52043945 50.09479492 18.95556641 49.49365234 C20.11689058 47.90885681 21.29807533 46.33867004 22.48046875 44.76953125 C24.21591719 42.19454518 24.21591719 42.19454518 23.85205078 39.74072266 C22.7582142 36.22226723 20.92828763 33.40468811 18.88671875 30.37890625 C18.47589554 29.75652573 18.06507233 29.1341452 17.64179993 28.49290466 C16.33112258 26.51106191 15.00954643 24.53677206 13.6875 22.5625 C12.8098171 21.23941611 11.93285649 19.91585277 11.05664062 18.59179688 C6.98849171 12.42343329 6.98849171 12.42343329 2.82998657 6.31637573 C0 2.20999431 0 2.20999431 0 0 Z " fill="#5FC0C0" transform="translate(485,9)"/>
</svg>
