<?xml version="1.0" encoding="UTF-8"?>
<!DOCTYPE svg PUBLIC "-//W3C//DTD SVG 1.1//EN" "http://www.w3.org/Graphics/SVG/1.1/DTD/svg11.dtd">
<!-- Creator: CorelDRAW -->
<svg xmlns="http://www.w3.org/2000/svg" xml:space="preserve" width="125.757mm" height="128.018mm" style="shape-rendering:geometricPrecision; text-rendering:geometricPrecision; image-rendering:optimizeQuality; fill-rule:evenodd; clip-rule:evenodd"
viewBox="0 0 131.638 134.004"
 xmlns:xlink="http://www.w3.org/1999/xlink">
 <defs>
  <style type="text/css">
   <![CDATA[
    .fil0 {fill:#14B8A6}
   ]]>
  </style>
 </defs>
 <g id="Layer_x0020_1">
  <metadata id="CorelCorpID_0Corel-Layer"/>
  <path class="fil0" d="M23.7447 120.189c-1.80054,-0.785597 -1.43281,-2.20983 -1.43951,-3.44815 -0.0279486,-5.17269 0.0266925,-10.346 -0.0303562,-15.5182 -0.014236,-1.29255 0.420276,-3.31092 -1.53006,-3.29846 -1.95546,0.0123518 -1.84471,1.99252 -1.85068,3.47683 -0.02104,5.27235 -0.0977679,10.547 0.034962,15.8161 0.0593516,2.35679 -0.80894,3.18719 -3.11486,3.11716 -3.87617,-0.117656 -7.75915,0.0129799 -11.6378,-0.0516055 -3.21577,-0.0534897 -4.14257,-0.940832 -4.13671,-4.0872 0.010991,-5.95086 -0.385733,-11.9169 1.11323,-17.7975 3.00422,-11.7861 13.2661,-20.2642 25.4277,-20.7581 3.56089,-0.144558 6.30749,-1.70884 8.37286,-4.45849 0.996939,-1.3273 1.84189,-1.44464 3.22194,-0.630362 9.77595,5.7682 19.5789,5.80484 29.3366,-0.0590375 1.3543,-0.81386 2.25044,-0.71986 3.21127,0.6648 2.20742,3.18101 5.36122,4.44268 9.22524,4.53982 3.37592,0.0848926 6.65711,0.914559 9.85875,2.81684 -1.33567,2.83673 -3.51284,4.88881 -5.34311,7.1538 -5.81174,7.19232 -11.6819,14.3388 -17.626,21.4222 -2.01104,2.39646 -3.24246,4.99694 -3.1606,8.1207 0.0609217,2.32801 -1.01044,3.13548 -3.26182,3.12145 -12.1354,-0.0754718 -24.2711,-0.0683538 -36.6711,-0.142569z"/>
  <path class="fil0" d="M85.744 31.9c-0.368671,14.7083 -5.84953,26.8096 -17.1421,35.8256 -10.147,8.10144 -22.3222,7.81483 -32.2536,-0.525057 -10.453,-8.77786 -15.5576,-20.3535 -16.5039,-33.8469 -0.0817523,-1.16714 0.32994,-2.36077 0.352969,-3.54529 0.0351713,-1.81132 0.963024,-2.32895 2.64894,-2.3838 6.67292,-0.217308 12.9336,-2.00696 18.7037,-5.3631 1.50504,-0.87541 2.83537,-0.993171 4.48591,-0.431791 12.007,4.08364 24.3513,6.47372 37.0317,6.96141 2.20281,0.0846833 2.70725,1.20074 2.67637,3.30893z"/>
  <path class="fil0" d="M80.7318 97.4628c7.33814,-8.92514 14.6308,-17.6161 21.6944,-26.4896 1.85769,-2.33376 3.13244,-2.30676 5.22985,-0.487164 4.28232,3.71507 8.67004,7.3171 13.1457,10.7968 1.75951,1.36791 1.54827,2.34915 0.29299,3.86476 -8.62953,10.4189 -17.1878,20.8969 -25.7986,31.3315 -1.81656,2.20124 -3.29291,4.71358 -5.74339,6.62759 -1.61432,-1.74087 -2.25337,-3.86466 -2.78073,-5.87486 -1.18483,-4.51637 -4.10698,-6.55306 -8.54893,-6.93974 -2.04894,-0.178264 -4.1006,-0.449062 -6.66036,-1.48421 3.14207,-3.88632 6.08997,-7.53263 9.16903,-11.3449z"/>
  <path class="fil0" d="M22.5026 20.2302c6.28195,-14.3802 20.1622,-21.4151 33.0748,-20.067 14.5276,1.51676 26.6588,12.06 28.7299,24.5466 -2.89598,1.06362 -5.87382,0.231126 -8.71076,-0.0663649 -10.001,-1.04875 -19.7861,-3.25157 -29.2377,-6.7105 -2.62215,-0.959569 -4.66522,-0.70039 -6.93042,0.868815 -4.68155,3.24309 -10.0665,4.61686 -15.6608,5.24628 -0.683642,0.0769372 -1.39952,0.0935808 -1.97755,-0.536362 -0.437129,-1.11962 0.3268,-2.05072 0.712428,-3.2815z"/>
  <path class="fil0" d="M72.565 112.84c6.89651,-0.028786 11.3775,2.65386 12.55,9.63463 0.161516,0.961558 0.724361,1.84901 1.01892,2.79633 0.526732,1.69398 0.0196792,2.95743 -1.7303,3.53095 -5.19311,1.70204 -10.382,3.41947 -15.6012,5.0385 -1.80263,0.559077 -3.08283,-0.346793 -3.06556,-2.17853 0.0554785,-5.86628 0.780363,-11.6948 1.87402,-17.4418 0.52087,-2.73677 2.90561,-1.63369 4.95413,-1.38005z"/>
  <path class="fil0" d="M113.564 57.7852c2.7576,-1.72517 5.19625,-1.07639 7.38315,0.554262 2.77822,2.07165 5.49436,4.24578 8.07883,6.55338 3.26769,2.91754 3.41926,5.88502 0.739016,9.38027 -4.67695,6.09939 -4.67276,6.09427 -10.6739,1.18776 -3.37613,-2.76042 -6.73687,-5.54157 -10.1689,-8.23124 -1.49844,-1.17426 -1.69565,-2.27514 -0.410332,-3.7044 1.65378,-1.83896 3.24801,-3.7314 5.05211,-5.74004z"/>
 </g>
</svg>
